PathFileType	4	(X/Y/Z)	D:\TRACE\spotREDO_2-26-24\spot_justArm_Motion_3_1-v60.trc
DataRate	CameraRate	NumFrames	NumMarkers	Units	OrigDataRate	OrigDataStartFrame	OrigNumFrames
100.00	100.00	      24	9	mm	100.00	876	      7000
Frame#	Time	front left toe			Front right toe			aft left toe			aft right toe			Arm			FL body			FR body			AL Body			AR Body			
		X1	Y1	Z1	X2	Y2	Z2	X3	Y3	Z3	X4	Y4	Z4	X5	Y5	Z5	X6	Y6	Z6	X7	Y7	Z7	X8	Y8	Z8	X9	Y9	Z9	

876	8.750	-209.54112	11.79414	-174.81027	212.66571	12.04802	-174.31160	-189.01318	39.90659	453.94418	225.26250	40.97838	416.36926	-30.71486	649.20447	-806.03662	-68.78294	530.96667	-230.53548	87.31230	534.46832	-237.93797	-38.77727	590.74017	650.09912	109.10452	590.39117	646.16547	
877	8.760	-209.51442	11.92267	-174.70537	212.71304	12.01643	-174.33286	-189.04042	39.86086	453.95581	225.27567	40.85840	416.40201	-29.72592	649.99542	-805.19049	-69.19537	531.11615	-231.06203	87.35336	534.36121	-237.91321	-38.73166	590.67084	650.10913	109.21839	590.31653	646.20087	
878	8.770	-209.54677	12.04603	-174.53854	212.66707	12.08513	-174.34076	-189.06479	39.78115	454.00409	225.24689	40.63865	416.40167	-32.79805	649.81110	-807.04828	-69.14412	531.02234	-231.05008	87.37673	534.29382	-237.91075	-38.72379	590.52258	650.13226	109.33634	590.15729	646.22900	
879	8.780	-209.60425	12.11814	-174.40628	212.75023	12.53503	-174.06038	-189.09404	39.62953	454.04166	225.17570	40.44560	416.35339	-33.00763	650.81122	-807.09637	-69.14796	530.98022	-231.05415	87.32185	534.30591	-237.92200	-38.50072	590.20648	650.20477	109.62701	589.87158	646.29755	
880	8.790	-209.66318	12.22904	-174.34956	212.72464	12.35491	-174.16710	-189.08788	39.50291	454.11276	225.00423	40.26848	416.36667	-33.07990	651.44110	-807.13611	-69.27051	531.07312	-230.98196	87.30820	534.36078	-237.85175	-38.77361	590.13422	650.45947	109.70886	589.62317	646.41809	
881	8.800	-210.82323	13.27524	-174.35620	212.54071	12.55623	-174.15614	-189.10381	39.41919	454.16403	224.96266	40.20339	416.38263	-32.98719	651.82697	-807.15424	-69.28778	531.17273	-230.91284	87.32841	534.41412	-237.77374	-38.67731	590.01776	650.51367	109.86158	589.47498	646.53192	
882	8.810	-210.73700	13.31000	-174.29787	212.50098	12.67137	-174.15846	-189.06172	39.34800	454.21426	224.93527	40.15046	416.40317	-32.95205	652.52618	-807.36212	-69.35000	531.32904	-230.89748	87.28109	534.54688	-237.69682	-38.70601	589.90576	650.58527	109.77319	589.41486	646.68585	
883	8.820	-210.28961	12.96371	-174.57541	212.81673	12.67551	-174.03049	-189.01852	39.25386	454.20361	224.93983	40.09778	416.41547	-31.49739	653.00037	-805.87555	-69.37117	531.41492	-230.84572	87.20029	534.69421	-237.61752	-38.77266	589.76532	650.68774	109.83630	589.28302	646.83563	
884	8.830	-209.91821	12.88049	-174.50281	212.73189	12.86444	-173.99228	-188.89299	39.12061	454.22626	225.18781	40.09887	416.50116	-33.07077	653.06958	-806.98004	-69.46881	531.50348	-230.77820	87.11286	534.81177	-237.56519	-38.69542	589.64740	650.83612	109.80167	589.16949	646.89508	
885	8.840	-209.72386	12.90519	-174.43311	212.92506	12.96664	-173.88069	-188.86035	39.05648	454.22675	225.21523	39.90190	416.57629	-33.00199	653.15729	-806.85815	-69.49600	531.60669	-230.69131	87.06271	534.92926	-237.47557	-38.72238	589.48920	651.00739	109.67585	589.06226	646.96228	
886	8.850	-209.39706	12.89788	-174.42316	213.07545	12.87418	-174.04135	-188.68098	38.91330	454.22864	225.61618	39.85294	416.69000	-32.94216	653.21234	-806.78296	-69.08437	531.29004	-230.03223	87.06355	535.00000	-237.39017	-38.72028	589.34540	651.12585	109.56930	589.00818	647.04980	
887	8.860	-209.13657	12.82209	-174.40329	213.30424	12.94583	-173.99358	-188.46324	38.70740	454.22351	225.84979	39.81265	416.75116	-32.87756	653.25140	-806.67242	-69.14733	531.41296	-229.93854	87.12820	535.03668	-237.27168	-38.66949	589.26251	651.24524	109.55764	588.98346	647.13269	
888	8.870	-209.03484	12.86801	-174.36833	213.46272	12.98486	-173.95105	-188.36885	38.63177	454.23901	225.87282	39.69534	416.75992	-32.66616	653.22748	-806.55920	-69.05453	531.43268	-229.74968	87.13934	535.12103	-237.15990	-38.69315	589.20673	651.32153	109.44231	588.92346	647.20758	
889	8.880	-208.99280	12.89691	-174.34247	213.54129	13.00552	-173.90869	-188.32489	38.56868	454.26846	225.80922	39.49595	416.77985	-32.51231	653.18823	-806.41528	-68.94090	531.38599	-229.55405	87.15901	535.15332	-237.05711	-38.75769	589.14185	651.40271	109.40074	588.86035	647.35052	
890	8.890	-208.91791	12.92853	-174.33986	213.81677	12.98179	-173.83078	-188.18379	38.38369	454.33319	225.95537	39.46268	416.79263	-30.46366	653.25220	-804.91357	-68.94455	531.46210	-229.44054	87.28753	535.31720	-237.31503	-38.73302	589.08899	651.47125	109.34242	588.76300	647.42401	
891	8.900	-208.87167	12.98003	-174.36528	213.92795	13.02406	-173.79420	-188.07477	38.37941	454.34262	225.92917	39.27807	416.79837	-32.13433	653.01154	-806.21460	-68.89933	531.51563	-229.32660	87.28312	535.27411	-236.88153	-38.78526	588.98767	651.61017	109.33147	588.68420	647.48627	
892	8.910	-208.73416	12.98700	-174.33577	214.11209	13.04408	-173.87201	-187.82722	38.16304	454.56793	226.02213	39.20940	416.80399	-31.98343	652.87921	-806.15344	-68.73682	531.54193	-229.16234	87.34966	535.36511	-236.81390	-38.72522	588.90564	651.77740	109.38888	588.63617	647.59412	
893	8.920	-208.46872	12.99343	-174.31378	214.24200	13.04306	-173.83488	-187.52467	38.07587	454.61935	226.46925	39.30925	416.91061	-31.92085	652.79749	-806.18127	-68.52741	531.55695	-229.03171	86.95641	535.46588	-236.70482	-38.52559	588.77008	651.93488	109.55856	588.48969	647.70398	
894	8.930	-208.23463	13.02939	-174.27565	214.35457	13.03662	-173.84709	-187.23705	37.93539	454.82071	226.61032	39.31211	416.96161	-31.76858	652.69092	-806.08459	-68.45377	531.58942	-228.95821	87.67924	535.57544	-236.46542	-38.41260	588.61896	652.02631	109.61833	588.38477	647.81335	
895	8.940	-208.15263	13.08766	-174.29391	214.44701	13.02068	-173.86729	-187.10500	37.87049	454.82004	226.87848	39.39832	417.02768	-31.67176	652.65540	-806.03949	-68.34861	531.61127	-228.90421	87.42488	535.68201	-236.35857	-38.31502	588.46954	652.12177	109.75102	588.27637	647.92059	
896	8.950	-208.02290	13.14496	-174.34724	214.42316	13.17598	-173.92111	-186.99049	37.82639	454.86838	227.22699	39.49453	417.10226	-29.64578	652.75183	-804.50903	-68.25039	531.63977	-228.79034	87.49852	535.69952	-236.35770	-38.17764	588.30182	652.19104	109.83916	588.18329	647.95850	
897	8.960	-207.93460	13.24669	-174.33510	214.58560	13.18522	-173.95488	-186.88531	37.77040	454.87234	227.27795	39.42900	417.03671	-29.70283	652.90533	-804.51392	-68.22219	531.63562	-228.82846	87.96502	535.75262	-236.28291	-38.07695	588.20093	652.23602	109.84432	588.09595	648.02991	
898	8.970	-207.73502	13.24267	-174.35831	214.93747	13.14154	-173.90285	-186.81465	37.87105	454.90073	227.61244	39.35305	416.94437	-31.37424	652.56390	-805.95032	-68.16525	531.62567	-228.80838	88.09265	535.81854	-236.24667	-37.94670	588.09424	652.25427	110.06578	587.94012	648.07739	
899	8.980	-207.61162	13.34026	-174.29668	215.05284	13.24741	-173.86678	-186.64223	37.77504	454.84320	227.62115	39.27800	416.95822	-31.22890	652.65680	-806.05798	-68.13017	531.67676	-228.81645	88.18088	535.87952	-236.22115	-37.91468	587.94885	652.30591	110.17875	587.81573	648.20605	
